<?xml version="1.0" encoding="utf-8"?>
<!-- Generator: Adobe Illustrator 24.3.0, SVG Export Plug-In . SVG Version: 6.00 Build 0)  -->
<svg version="1.1" id="Layer_1" xmlns="http://www.w3.org/2000/svg" xmlns:xlink="http://www.w3.org/1999/xlink" x="0px" y="0px"
	 viewBox="0 0 150 66" style="enable-background:new 0 0 150 66;" xml:space="preserve">
<style type="text/css">
	.st0{fill:#6D6E71;}
	.st1{fill:#00AEEF;}
	.st2{fill:#662D91;}
</style>
<g>
	<g>
		<path d="M42.71,20.99c1.76,0,2.67,1.05,2.67,2.9v0.36h-1.71v-0.48c0-0.82-0.33-1.14-0.91-1.14c-0.58,0-0.91,0.31-0.91,1.14
			c0,2.37,3.54,2.81,3.54,6.11c0,1.84-0.92,2.9-2.7,2.9c-1.78,0-2.7-1.05-2.7-2.9v-0.71h1.71v0.82c0,0.82,0.36,1.12,0.94,1.12
			c0.58,0,0.94-0.3,0.94-1.12c0-2.37-3.54-2.81-3.54-6.11C40.04,22.04,40.95,20.99,42.71,20.99z"/>
		<path d="M45.91,21.12h5.6v1.65h-1.89v9.88H47.8v-9.88h-1.89V21.12z"/>
		<path d="M54.1,25.98h2.49v1.65H54.1V31h3.13v1.65h-4.94V21.12h4.94v1.65H54.1V25.98z"/>
		<path d="M58.35,21.12h1.81V31h2.98v1.65h-4.79V21.12z"/>
		<path d="M63.93,21.12h1.81V31h2.98v1.65h-4.79V21.12z"/>
		<path d="M75.37,32.64h-1.83l-0.31-2.09h-2.22l-0.31,2.09h-1.66l1.84-11.52h2.65L75.37,32.64z M71.24,28.99h1.74l-0.87-5.83
			L71.24,28.99z"/>
		<path d="M80,32.64c-0.1-0.3-0.16-0.48-0.16-1.42v-1.81c0-1.07-0.36-1.46-1.18-1.46h-0.63v4.69h-1.81V21.12h2.73
			c1.88,0,2.68,0.87,2.68,2.65v0.91c0,1.19-0.38,1.96-1.18,2.34c0.91,0.38,1.2,1.25,1.2,2.45v1.78c0,0.56,0.02,0.97,0.2,1.4H80z
			 M78.02,22.77v3.54h0.71c0.67,0,1.09-0.3,1.09-1.22v-1.14c0-0.82-0.28-1.19-0.92-1.19H78.02z"/>
		<path d="M85.38,21.12h1.81v11.52h-1.81V21.12z"/>
		<path d="M90.12,24.3v8.34h-1.63V21.12h2.27l1.86,6.9v-6.9h1.61v11.52h-1.86L90.12,24.3z"/>
		<path d="M97.97,20.99c1.76,0,2.67,1.05,2.67,2.9v0.36h-1.71v-0.48c0-0.82-0.33-1.14-0.91-1.14s-0.91,0.31-0.91,1.14
			c0,2.37,3.54,2.81,3.54,6.11c0,1.84-0.92,2.9-2.7,2.9c-1.78,0-2.7-1.05-2.7-2.9v-0.71h1.71v0.82c0,0.82,0.36,1.12,0.94,1.12
			s0.94-0.3,0.94-1.12c0-2.37-3.54-2.81-3.54-6.11C95.31,22.04,96.21,20.99,97.97,20.99z"/>
		<path d="M101.17,21.12h5.6v1.65h-1.89v9.88h-1.81v-9.88h-1.89V21.12z"/>
		<path d="M107.56,21.12h1.81v11.52h-1.81V21.12z"/>
		<path d="M110.16,21.12h5.6v1.65h-1.89v9.88h-1.81v-9.88h-1.89V21.12z"/>
		<path d="M118.27,21.12v8.89c0,0.82,0.36,1.12,0.94,1.12s0.94-0.3,0.94-1.12v-8.89h1.71v8.77c0,1.84-0.92,2.9-2.7,2.9
			c-1.78,0-2.7-1.05-2.7-2.9v-8.77H118.27z"/>
		<path d="M122.57,21.12h5.6v1.65h-1.89v9.88h-1.81v-9.88h-1.89V21.12z"/>
		<path d="M130.77,25.98h2.49v1.65h-2.49V31h3.13v1.65h-4.94V21.12h4.94v1.65h-3.13V25.98z"/>
	</g>
	<g>
		<path class="st0" d="M53.51,44.61V38.3h0.7v5.67h1.8v0.64H53.51z"/>
		<path class="st0" d="M58.8,41.09v0.63h-1.54v2.25h1.89v0.64h-2.6V38.3h2.6v0.64h-1.89v2.16H58.8z"/>
		<path class="st0" d="M60.51,43.34l-0.24,1.27h-0.65l1.21-6.31h1.02l1.21,6.31h-0.7l-0.24-1.27H60.51z M60.6,42.74h1.41l-0.71-3.64
			L60.6,42.74z"/>
		<path class="st0" d="M65.01,38.3c0.99,0,1.41,0.51,1.41,1.44v0.51c0,0.69-0.24,1.13-0.78,1.3c0.58,0.17,0.79,0.64,0.79,1.32v0.98
			c0,0.28,0.01,0.54,0.13,0.76h-0.71c-0.08-0.18-0.12-0.34-0.12-0.77v-0.99c0-0.71-0.33-0.94-0.92-0.94h-0.5v2.7h-0.7V38.3H65.01z
			 M64.83,41.28c0.56,0,0.89-0.18,0.89-0.87v-0.6c0-0.57-0.21-0.87-0.73-0.87h-0.69v2.34H64.83z"/>
		<path class="st0" d="M67.78,44.61h-0.63V38.3h0.89l1.46,4.56V38.3h0.62v6.31H69.4l-1.61-5.11V44.61z"/>
		<path class="st0" d="M75.29,37.9v7.11h-0.58V37.9H75.29z"/>
		<path class="st0" d="M82.54,39.81v0.17h-0.67v-0.21c0-0.57-0.22-0.9-0.72-0.9c-0.51,0-0.72,0.33-0.72,0.89
			c0,1.42,2.12,1.55,2.12,3.33c0,0.96-0.46,1.58-1.43,1.58c-0.97,0-1.42-0.62-1.42-1.58v-0.36h0.66v0.4c0,0.57,0.23,0.9,0.74,0.9
			c0.51,0,0.74-0.33,0.74-0.9c0-1.41-2.11-1.54-2.11-3.32c0-0.97,0.45-1.58,1.4-1.58C82.09,38.24,82.54,38.86,82.54,39.81z"/>
		<path class="st0" d="M83.86,41.77v2.84h-0.7V38.3h0.7v2.84h1.55V38.3h0.7v6.31h-0.7v-2.84H83.86z"/>
		<path class="st0" d="M87.54,38.3v6.31h-0.7V38.3H87.54z"/>
		<path class="st0" d="M88.89,44.61h-0.63V38.3h0.89l1.46,4.56V38.3h0.62v6.31H90.5l-1.62-5.11V44.61z"/>
		<path class="st0" d="M94.2,41.09v0.63h-1.54v2.25h1.89v0.64h-2.6V38.3h2.6v0.64h-1.89v2.16H94.2z"/>
		<path class="st0" d="M99.64,37.9v7.11h-0.58V37.9H99.64z"/>
		<path class="st0" d="M106.4,41.09v0.63h-1.54v2.25h1.89v0.64h-2.6V38.3h2.6v0.64h-1.89v2.16H106.4z"/>
		<path class="st0" d="M108.97,41.89l-1.06,2.72h-0.67l1.27-3.26l-1.19-3.06h0.73l0.97,2.53l0.98-2.53h0.66l-1.18,3.06l1.26,3.26
			h-0.74L108.97,41.89z"/>
		<path class="st0" d="M113.98,39.82v0.57h-0.67v-0.6c0-0.57-0.23-0.91-0.74-0.91c-0.51,0-0.74,0.34-0.74,0.91v3.34
			c0,0.57,0.23,0.91,0.74,0.91c0.51,0,0.74-0.34,0.74-0.91V42.3h0.67v0.78c0,0.96-0.45,1.59-1.43,1.59c-0.97,0-1.42-0.63-1.42-1.59
			v-3.27c0-0.96,0.45-1.59,1.42-1.59C113.53,38.24,113.98,38.87,113.98,39.82z"/>
		<path class="st0" d="M116.87,41.09v0.63h-1.54v2.25h1.89v0.64h-2.6V38.3h2.6v0.64h-1.89v2.16H116.87z"/>
		<path class="st0" d="M117.87,44.61V38.3h0.7v5.67h1.8v0.64H117.87z"/>
	</g>
	<g>
		<path class="st1" d="M29.29,46.49c1.37,0.49,2.15,1.69,2.21,3.14c0.06,4.97-7.06,4.62-6.97,0.18c-0.03-2.04-0.02-4.07,0-6.11
			c0.01-0.48-0.12-0.77-0.55-1.03c-2.16-1.28-3.6-3.16-4.08-5.62c-1.86-9.98,11.64-13.95,15.67-5.15c0.36,0.88,0.61,1.86,0.65,2.8
			c0.07,2.62,0.08,5.24,0.02,7.86c-0.71-0.56-1.39-1.07-2.05-1.61c-0.09-0.08-0.11-0.28-0.11-0.43c-0.03-1.78-0.09-3.56-0.08-5.35
			c-0.25-7.42-10.63-7.75-11.91-1.02c-0.46,2.34,0.24,4.33,2.09,5.88c0.13,0.09,0.16,0.16,0.34,0.13c0-1.63-0.01-3.27,0-4.9
			c0.01-2.07,1.44-3.45,3.57-3.44c1.92,0,3.37,1.47,3.38,3.45c0.01,1.37,0,2.73,0,4.17c-0.73-0.18-1.43-0.35-2.18-0.53
			c0-1.14,0.01-2.28,0-3.43c-0.01-0.87-0.53-1.36-1.39-1.32c-1.06,0.03-1.18,0.99-1.11,1.84c0,4.49-0.01,8.98-0.01,13.47
			c-0.08,0.7,0.27,1.44,1.02,1.54c1,0.17,1.5-0.71,1.47-1.59C29.3,48.45,29.29,47.49,29.29,46.49z"/>
		<path class="st2" d="M19.66,42.38c0.78,0.65,1.48,1.22,2.16,1.82c0.1,0.09,0.13,0.31,0.13,0.47c0.16,2.87-0.57,6.03,1.17,8.55
			c1.4,2.05,3.85,2.97,6.33,2.38c6.25-1.64,6-10.15-0.13-11.83c0-0.73,0-1.46,0-2.34c0.89,0.33,1.77,0.55,2.56,0.95
			c6.96,3.44,5.37,14.21-2.3,15.59c-4.16,0.86-8.48-1.79-9.54-5.91c-0.23-0.88-0.34-1.81-0.36-2.73
			C19.63,47.06,19.66,44.78,19.66,42.38z"/>
	</g>
	<path class="st2" d="M27.98,17.3l-4.96-2.01c-0.53,0.83-0.85,1.81-0.85,2.86c0,3.05,2.6,5.52,5.82,5.52s5.82-2.47,5.82-5.52
		c0-1.04-0.31-2.01-0.83-2.84L27.98,17.3z"/>
	<path class="st1" d="M27.98,17.3l11.88-4.72L27.98,7.87L16.11,12.5l3.67,1.49v4.11c0,0.08-0.04,0.15-0.1,0.2l-0.3,0.24
		c-0.06,0.05-0.1,0.12-0.1,0.2v1.86c0,0.12,0.1,0.21,0.21,0.21h0.55h0.01h0.53c0.12,0,0.21-0.1,0.21-0.21v-1.86
		c0-0.08-0.04-0.15-0.1-0.2l-0.29-0.24c-0.06-0.05-0.1-0.12-0.1-0.2V14.2L27.98,17.3z"/>
</g>
</svg>
